{
    "asset" : {
        "generator" : "Khronos glTF Blender I/O v1.8.19",
        "version" : "2.0"
    },
    "scene" : 0,
    "scenes" : [
        {
            "name" : "Scene",
            "nodes" : [
                3
            ]
        }
    ],
    "nodes" : [
        {
            "mesh" : 0,
            "name" : "BODY"
        },
        {
            "mesh" : 1,
            "name" : "LeftEye"
        },
        {
            "mesh" : 2,
            "name" : "RightEye"
        },
        {
            "children" : [
                0,
                1,
                2
            ],
            "name" : "MESH1",
            "rotation" : [
                0.7071068286895752,
                0,
                0,
                0.7071067094802856
            ],
            "scale" : [
                0.12187264114618301,
                0.12187264114618301,
                0.12187264114618301
            ]
        }
    ],
    "animations" : [
        {
            "channels" : [
                {
                    "sampler" : 0,
                    "target" : {
                        "node" : 2,
                        "path" : "rotation"
                    }
                }
            ],
            "name" : "RightEyeAction",
            "samplers" : [
                {
                    "input" : 12,
                    "interpolation" : "LINEAR",
                    "output" : 13
                }
            ]
        },
        {
            "channels" : [
                {
                    "sampler" : 0,
                    "target" : {
                        "node" : 0,
                        "path" : "rotation"
                    }
                }
            ],
            "name" : "BODYAction",
            "samplers" : [
                {
                    "input" : 12,
                    "interpolation" : "LINEAR",
                    "output" : 14
                }
            ]
        },
        {
            "channels" : [
                {
                    "sampler" : 0,
                    "target" : {
                        "node" : 1,
                        "path" : "rotation"
                    }
                }
            ],
            "name" : "LeftEyeAction",
            "samplers" : [
                {
                    "input" : 12,
                    "interpolation" : "LINEAR",
                    "output" : 15
                }
            ]
        },
        {
            "channels" : [
                {
                    "sampler" : 0,
                    "target" : {
                        "node" : 3,
                        "path" : "rotation"
                    }
                }
            ],
            "name" : "MESH1Action",
            "samplers" : [
                {
                    "input" : 16,
                    "interpolation" : "LINEAR",
                    "output" : 17
                }
            ]
        }
    ],
    "materials" : [
        {
            "doubleSided" : true,
            "name" : "COLOR",
            "pbrMetallicRoughness" : {
                "baseColorTexture" : {
                    "index" : 0
                },
                "metallicFactor" : 0,
                "roughnessFactor" : 0.5527864098548889
            }
        }
    ],
    "meshes" : [
        {
            "name" : "Mesh.003",
            "primitives" : [
                {
                    "attributes" : {
                        "POSITION" : 0,
                        "NORMAL" : 1,
                        "TEXCOORD_0" : 2
                    },
                    "indices" : 3,
                    "material" : 0
                }
            ]
        },
        {
            "name" : "Mesh.004",
            "primitives" : [
                {
                    "attributes" : {
                        "POSITION" : 4,
                        "NORMAL" : 5,
                        "TEXCOORD_0" : 6
                    },
                    "indices" : 7,
                    "material" : 0
                }
            ]
        },
        {
            "name" : "Mesh.002",
            "primitives" : [
                {
                    "attributes" : {
                        "POSITION" : 8,
                        "NORMAL" : 9,
                        "TEXCOORD_0" : 10
                    },
                    "indices" : 11,
                    "material" : 0
                }
            ]
        }
    ],
    "textures" : [
        {
            "sampler" : 0,
            "source" : 0
        }
    ],
    "images" : [
        {
            "bufferView" : 4,
            "mimeType" : "image/jpeg",
            "name" : "FLYING_UVS_COLOR_V01"
        }
    ],
    "accessors" : [
        {
            "bufferView" : 0,
            "componentType" : 5126,
            "count" : 7218,
            "max" : [
                4.018093109130859,
                0.4437119662761688,
                -0.016617774963378906
            ],
            "min" : [
                -4.018093109130859,
                -0.4245877265930176,
                -2.778426170349121
            ],
            "type" : "VEC3"
        },
        {
            "bufferView" : 1,
            "componentType" : 5126,
            "count" : 7218,
            "type" : "VEC3"
        },
        {
            "bufferView" : 2,
            "componentType" : 5126,
            "count" : 7218,
            "type" : "VEC2"
        },
        {
            "bufferView" : 3,
            "componentType" : 5123,
            "count" : 33924,
            "type" : "SCALAR"
        },
        {
            "bufferView" : 5,
            "componentType" : 5126,
            "count" : 115,
            "max" : [
                0.424552321434021,
                0.41513651609420776,
                -2.070089817047119
            ],
            "min" : [
                0.14795291423797607,
                0.13853704929351807,
                -2.343402147293091
            ],
            "type" : "VEC3"
        },
        {
            "bufferView" : 6,
            "componentType" : 5126,
            "count" : 115,
            "type" : "VEC3"
        },
        {
            "bufferView" : 7,
            "componentType" : 5126,
            "count" : 115,
            "type" : "VEC2"
        },
        {
            "bufferView" : 8,
            "componentType" : 5123,
            "count" : 576,
            "type" : "SCALAR"
        },
        {
            "bufferView" : 9,
            "componentType" : 5126,
            "count" : 115,
            "max" : [
                -0.14795292913913727,
                0.41513657569885254,
                -2.070089817047119
            ],
            "min" : [
                -0.4245523512363434,
                0.13853703439235687,
                -2.343402147293091
            ],
            "type" : "VEC3"
        },
        {
            "bufferView" : 10,
            "componentType" : 5126,
            "count" : 115,
            "type" : "VEC3"
        },
        {
            "bufferView" : 11,
            "componentType" : 5126,
            "count" : 115,
            "type" : "VEC2"
        },
        {
            "bufferView" : 12,
            "componentType" : 5123,
            "count" : 576,
            "type" : "SCALAR"
        },
        {
            "bufferView" : 13,
            "componentType" : 5126,
            "count" : 2,
            "max" : [
                5.833333333333333
            ],
            "min" : [
                0
            ],
            "type" : "SCALAR"
        },
        {
            "bufferView" : 14,
            "componentType" : 5126,
            "count" : 2,
            "type" : "VEC4"
        },
        {
            "bufferView" : 15,
            "componentType" : 5126,
            "count" : 2,
            "type" : "VEC4"
        },
        {
            "bufferView" : 16,
            "componentType" : 5126,
            "count" : 2,
            "type" : "VEC4"
        },
        {
            "bufferView" : 17,
            "componentType" : 5126,
            "count" : 141,
            "max" : [
                5.833333333333333
            ],
            "min" : [
                0
            ],
            "type" : "SCALAR"
        },
        {
            "bufferView" : 18,
            "componentType" : 5126,
            "count" : 141,
            "type" : "VEC4"
        }
    ],
    "bufferViews" : [
        {
            "buffer" : 0,
            "byteLength" : 86616,
            "byteOffset" : 0
        },
        {
            "buffer" : 0,
            "byteLength" : 86616,
            "byteOffset" : 86616
        },
        {
            "buffer" : 0,
            "byteLength" : 57744,
            "byteOffset" : 173232
        },
        {
            "buffer" : 0,
            "byteLength" : 67848,
            "byteOffset" : 230976
        },
        {
            "buffer" : 0,
            "byteLength" : 545882,
            "byteOffset" : 298824
        },
        {
            "buffer" : 0,
            "byteLength" : 1380,
            "byteOffset" : 844708
        },
        {
            "buffer" : 0,
            "byteLength" : 1380,
            "byteOffset" : 846088
        },
        {
            "buffer" : 0,
            "byteLength" : 920,
            "byteOffset" : 847468
        },
        {
            "buffer" : 0,
            "byteLength" : 1152,
            "byteOffset" : 848388
        },
        {
            "buffer" : 0,
            "byteLength" : 1380,
            "byteOffset" : 849540
        },
        {
            "buffer" : 0,
            "byteLength" : 1380,
            "byteOffset" : 850920
        },
        {
            "buffer" : 0,
            "byteLength" : 920,
            "byteOffset" : 852300
        },
        {
            "buffer" : 0,
            "byteLength" : 1152,
            "byteOffset" : 853220
        },
        {
            "buffer" : 0,
            "byteLength" : 8,
            "byteOffset" : 854372
        },
        {
            "buffer" : 0,
            "byteLength" : 32,
            "byteOffset" : 854380
        },
        {
            "buffer" : 0,
            "byteLength" : 32,
            "byteOffset" : 854412
        },
        {
            "buffer" : 0,
            "byteLength" : 32,
            "byteOffset" : 854444
        },
        {
            "buffer" : 0,
            "byteLength" : 564,
            "byteOffset" : 854476
        },
        {
            "buffer" : 0,
            "byteLength" : 2256,
            "byteOffset" : 855040
        }
    ],
    "samplers" : [
        {
            "magFilter" : 9729,
            "minFilter" : 9987
        }
    ],
    "buffers" : [
        {
            "byteLength" : 857296,
            "uri" : "data:application/octet-stream;base64,"
        }
    ]
}
